<?xml version="1.0" encoding="utf-8"?>
<!-- Generator: Adobe Illustrator 26.0.2, SVG Export Plug-In . SVG Version: 6.00 Build 0)  -->
<svg version="1.1" id="Слой_1" xmlns="http://www.w3.org/2000/svg" xmlns:xlink="http://www.w3.org/1999/xlink" x="0px" y="0px"
	 viewBox="0 0 21.8 20" style="enable-background:new 0 0 21.8 20;" xml:space="preserve">
<style type="text/css">
	.st0{fill:#fff;}
</style>
<g id="Design">
	<g id="Главная-v2" transform="translate(-1293.000000, -5246.000000)">
		<g id="Group-7" transform="translate(0.000000, 5034.000000)">
			<g id="envelope-2" transform="translate(1293.000000, 212.000000)">
				<path id="Path" class="st0" d="M21.8,4.1l-7.7,7.7c-1.8,1.8-4.7,1.8-6.4,0L0,4.1c0,0.1,0,0.3,0,0.4v10.9C0,18,2,20,4.5,20h12.7
					c2.5,0,4.5-2,4.5-4.5V4.5C21.8,4.4,21.8,4.3,21.8,4.1z"/>
				<path id="Path_00000061470046424204534630000008806549985559872955_" class="st0" d="M12.8,10.5l8.3-8.3C20.3,0.8,18.9,0,17.3,0
					H4.5C3,0,1.5,0.8,0.7,2.2L9,10.5C10,11.6,11.8,11.6,12.8,10.5z"/>
			</g>
		</g>
	</g>
</g>
</svg>
