<?xml version="1.0" encoding="utf-8"?>
<!-- Generator: Adobe Illustrator 26.0.2, SVG Export Plug-In . SVG Version: 6.00 Build 0)  -->
<svg version="1.1" id="Слой_1" xmlns="http://www.w3.org/2000/svg" xmlns:xlink="http://www.w3.org/1999/xlink" x="0px" y="0px"
	 viewBox="0 0 20 20" style="enable-background:new 0 0 20 20;" xml:space="preserve">
<style type="text/css">
	.st0{fill:#fff;}
</style>
<g id="Design">
	<g id="Главная-v2" transform="translate(-180.000000, -5935.000000)">
		<g id="Group-7" transform="translate(0.000000, 5034.000000)">
			<g id="Group-44" transform="translate(180.000000, 899.000000)">
				<g id="call-incoming-copy" transform="translate(0.000000, 2.000000)">
					<path id="Shape" class="st0" d="M17.2,12.4c-1-1-2.6-1-3.6,0L12,13.7C9.4,12.7,7.3,10.6,6.3,8l1.3-1.6c1-1,1-2.6,0-3.6
						c0,0-1.5-2-1.6-2c-1-1-2.6-1-3.6,0l-1,0.8C-5,8.4,11.6,25,18.5,18.5l0.8-0.9c1-1,1-2.6,0-3.7C19.2,14,17.2,12.4,17.2,12.4
						L17.2,12.4z"/>
				</g>
			</g>
		</g>
	</g>
</g>
</svg>
