<?xml version="1.0" encoding="utf-8"?>
<!-- Generator: Adobe Illustrator 26.0.2, SVG Export Plug-In . SVG Version: 6.00 Build 0)  -->
<svg version="1.1" id="Слой_1" xmlns="http://www.w3.org/2000/svg" xmlns:xlink="http://www.w3.org/1999/xlink" x="0px" y="0px"
	 viewBox="0 0 50 30" style="enable-background:new 0 0 50 30;" xml:space="preserve">
<style type="text/css">
	.st0{fill-rule:evenodd;clip-rule:evenodd;fill:#E1EEFF;}
	.st1{fill:#FF5F00;}
	.st2{fill:#EB001B;}
	.st3{fill:#F79E1B;}
</style>
<g id="Design">
	<g id="Главная-v2" transform="translate(-1395.000000, -6021.000000)">
		<g id="Group-7" transform="translate(0.000000, 5034.000000)">
			<g id="Group-48" transform="translate(1340.000000, 987.000000)">
				<g id="Group-47" transform="translate(55.000000, 0.000000)">
					<path id="Rectangle-Copy-18" class="st0" d="M6,0h38c3.3,0,6,2.7,6,6v18c0,3.3-2.7,6-6,6H6c-3.3,0-6-2.7-6-6V6C0,2.7,2.7,0,6,0
						z"/>
					<g id="Mastercard-logo" transform="translate(13.000000, 6.000000)">
						<g id="g15" transform="translate(1.166892, 14.698406)">
							<path id="XMLID_1775_" d="M3,2.7V1.5c0-0.4-0.3-0.7-0.7-0.7c-0.2,0-0.5,0.1-0.6,0.3C1.5,0.9,1.3,0.8,1,0.8
								c-0.2,0-0.4,0.1-0.5,0.3V0.9H0.1v1.8h0.4v-1c0-0.3,0.2-0.5,0.4-0.5s0.4,0.2,0.4,0.5v1h0.4v-1c0-0.3,0.2-0.5,0.4-0.5
								c0.3,0,0.4,0.2,0.4,0.5v1H3L3,2.7z M9,0.9H8.3V0.3H7.9v0.6H7.6v0.4h0.4v0.8c0,0.4,0.2,0.7,0.6,0.7c0.2,0,0.4-0.1,0.5-0.1
								L8.9,2.3C8.8,2.3,8.7,2.3,8.6,2.3C8.4,2.3,8.3,2.2,8.3,2V1.2H9V0.9L9,0.9z M12.4,0.8c-0.2,0-0.4,0.1-0.5,0.3V0.9h-0.4v1.8
								h0.4v-1c0-0.3,0.1-0.5,0.4-0.5c0.1,0,0.2,0,0.2,0l0.1-0.4C12.6,0.8,12.4,0.8,12.4,0.8L12.4,0.8L12.4,0.8z M7.2,1
								C7,0.9,6.8,0.8,6.5,0.8C6,0.8,5.7,1,5.7,1.4c0,0.3,0.2,0.5,0.6,0.5l0.2,0c0.2,0,0.3,0.1,0.3,0.2c0,0.1-0.2,0.2-0.4,0.2
								S6,2.3,5.8,2.2L5.6,2.5c0.2,0.2,0.5,0.2,0.8,0.2c0.5,0,0.8-0.2,0.8-0.6c0-0.3-0.2-0.5-0.6-0.6l-0.2,0c-0.2,0-0.3-0.1-0.3-0.2
								c0-0.1,0.1-0.2,0.3-0.2c0.2,0,0.5,0.1,0.6,0.2L7.2,1L7.2,1z M17.9,0.8c-0.2,0-0.4,0.1-0.5,0.3V0.9H17v1.8h0.4v-1
								c0-0.3,0.1-0.5,0.4-0.5c0.1,0,0.2,0,0.2,0l0.1-0.4C18.1,0.8,18,0.8,17.9,0.8L17.9,0.8L17.9,0.8z M12.8,1.8c0,0.6,0.4,1,1,1
								c0.3,0,0.5-0.1,0.6-0.2l-0.2-0.3c-0.2,0.1-0.3,0.2-0.5,0.2c-0.3,0-0.6-0.2-0.6-0.6c0-0.3,0.2-0.6,0.6-0.6
								c0.2,0,0.3,0.1,0.5,0.2L14.4,1c-0.2-0.2-0.4-0.2-0.6-0.2C13.1,0.8,12.8,1.2,12.8,1.8L12.8,1.8L12.8,1.8z M16.5,1.8V0.9h-0.4
								v0.2c-0.1-0.2-0.3-0.3-0.6-0.3c-0.5,0-0.9,0.4-0.9,1s0.4,1,0.9,1c0.3,0,0.5-0.1,0.6-0.3v0.2h0.4V1.8z M15,1.8
								c0-0.3,0.2-0.6,0.6-0.6c0.3,0,0.6,0.2,0.6,0.6c0,0.3-0.2,0.6-0.6,0.6C15.2,2.3,15,2.1,15,1.8L15,1.8z M10.2,0.8
								c-0.5,0-0.9,0.4-0.9,1s0.4,1,0.9,1c0.3,0,0.5-0.1,0.7-0.2l-0.2-0.3c-0.2,0.1-0.3,0.2-0.5,0.2c-0.2,0-0.5-0.1-0.6-0.4H11
								c0-0.1,0-0.1,0-0.2C11.1,1.2,10.7,0.8,10.2,0.8L10.2,0.8L10.2,0.8z M10.2,1.2c0.2,0,0.4,0.2,0.5,0.4h-1
								C9.8,1.4,9.9,1.2,10.2,1.2L10.2,1.2z M20.1,1.8V0.1h-0.4v1c-0.1-0.2-0.3-0.3-0.6-0.3c-0.5,0-0.9,0.4-0.9,1s0.4,1,0.9,1
								c0.3,0,0.5-0.1,0.6-0.3v0.2h0.4V1.8z M18.7,1.8c0-0.3,0.2-0.6,0.6-0.6c0.3,0,0.6,0.2,0.6,0.6c0,0.3-0.2,0.6-0.6,0.6
								C18.9,2.3,18.7,2.1,18.7,1.8L18.7,1.8z M5.3,1.8V0.9H4.9v0.2C4.8,0.9,4.6,0.8,4.3,0.8c-0.5,0-0.9,0.4-0.9,1s0.4,1,0.9,1
								c0.3,0,0.5-0.1,0.6-0.3v0.2h0.4V1.8z M3.8,1.8c0-0.3,0.2-0.6,0.6-0.6c0.3,0,0.6,0.2,0.6,0.6c0,0.3-0.2,0.6-0.6,0.6
								C4,2.3,3.8,2.1,3.8,1.8z"/>
						</g>
						<g id="XMLID_328_" transform="translate(0.022037, 0.006103)">
							<rect id="rect19" x="8.2" y="1.6" class="st1" width="6" height="10.8"/>
							<path id="XMLID_330_" class="st2" d="M8.6,7c0-2.2,1-4.1,2.6-5.4C10.1,0.7,8.6,0.2,7,0.2C3.2,0.2,0.1,3.2,0.1,7
								s3.1,6.9,6.9,6.9c1.6,0,3.1-0.6,4.2-1.5C9.7,11.2,8.6,9.2,8.6,7z"/>
							<path id="path22" class="st3" d="M22.4,7c0,3.8-3.1,6.9-6.9,6.9c-1.6,0-3.1-0.6-4.2-1.5c1.6-1.3,2.6-3.2,2.6-5.4
								s-1-4.1-2.6-5.4c1.2-0.9,2.6-1.5,4.2-1.5C19.3,0.2,22.4,3.3,22.4,7z"/>
						</g>
					</g>
				</g>
			</g>
		</g>
	</g>
</g>
</svg>
