<?xml version="1.0" encoding="utf-8"?>
<!-- Generator: Adobe Illustrator 26.0.2, SVG Export Plug-In . SVG Version: 6.00 Build 0)  -->
<svg version="1.1" id="Слой_1" xmlns="http://www.w3.org/2000/svg" xmlns:xlink="http://www.w3.org/1999/xlink" x="0px" y="0px"
	 viewBox="0 0 50 30" style="enable-background:new 0 0 50 30;" xml:space="preserve">
<style type="text/css">
	.st0{fill-rule:evenodd;clip-rule:evenodd;fill:#E1EEFF;}
	.st1{fill:#0F754E;}
	.st2{fill:url(#path24_00000101798272901926971580000006711795848341644459_);}
</style>
<g id="Design">
	<g id="Главная-v2" transform="translate(-1450.000000, -6021.000000)">
		<g id="Group-7" transform="translate(0.000000, 5034.000000)">
			<g id="Group-48" transform="translate(1340.000000, 987.000000)">
				<g id="Group-45" transform="translate(110.000000, 0.000000)">
					<path id="Rectangle-Copy-19" class="st0" d="M6,0h38c3.3,0,6,2.7,6,6v18c0,3.3-2.7,6-6,6H6c-3.3,0-6-2.7-6-6V6C0,2.7,2.7,0,6,0
						z"/>
					<g id="Mir-logo.SVG" transform="translate(9.000000, 11.000000)">
						<path id="Combined-Shape" class="st1" d="M2.9,0c0.3,0,1.1-0.1,1.5,1.1c0.2,0.8,0.6,2.1,1.2,4l0,0h0.2c0.6-2,1-3.3,1.2-4
							C7.3-0.1,8.2,0,8.6,0l2.8,0v8.7H8.5V3.6H8.4L6.8,8.7H4.6L3,3.6H2.8v5.1H0V0L2.9,0z M15.5,0v5.1h0.2l1.9-4.2
							C18,0.1,18.8,0,18.8,0l0,0h2.8v8.7h-2.9V3.6h-0.2l-1.9,4.2c-0.4,0.8-1.2,0.9-1.2,0.9h-2.8V0H15.5z M31.6,4.1
							c-0.4,1.1-1.7,2-3.1,2l0,0h-3v2.6h-2.8V4.1H31.6z"/>
						
							<linearGradient id="path24_00000123418349482674224510000005027505697182249150_" gradientUnits="userSpaceOnUse" x1="-250.7332" y1="311.3261" x2="-251.7332" y2="311.3261" gradientTransform="matrix(9.2938 0 0 -3.5909 2362.1279 1119.736)">
							<stop  offset="0" style="stop-color:#1F5CD7"/>
							<stop  offset="1" style="stop-color:#02AEFF"/>
						</linearGradient>
						<path id="path24" style="fill:url(#path24_00000123418349482674224510000005027505697182249150_);" d="M28.7,0h-6.1
							c0.1,1.9,1.8,3.6,3.5,3.6h5.7C32.1,2,31,0,28.7,0z"/>
					</g>
				</g>
			</g>
		</g>
	</g>
</g>
</svg>
