<?xml version="1.0" encoding="utf-8"?>
<!-- Generator: Adobe Illustrator 26.0.2, SVG Export Plug-In . SVG Version: 6.00 Build 0)  -->
<svg version="1.1" id="Слой_1" xmlns="http://www.w3.org/2000/svg" xmlns:xlink="http://www.w3.org/1999/xlink" x="0px" y="0px"
	 viewBox="0 0 50 30" style="enable-background:new 0 0 50 30;" xml:space="preserve">
<style type="text/css">
	.st0{fill-rule:evenodd;clip-rule:evenodd;fill:#E1EEFF;}
	.st1{fill:#00579F;}
	.st2{fill:#FAA61A;}
</style>
<g id="Design">
	<g id="Главная-v2" transform="translate(-1340.000000, -6021.000000)">
		<g id="Group-7" transform="translate(0.000000, 5034.000000)">
			<g id="Group-46" transform="translate(1340.000000, 987.000000)">
				<path id="Rectangle" class="st0" d="M6,0h38c3.3,0,6,2.7,6,6v18c0,3.3-2.7,6-6,6H6c-3.3,0-6-2.7-6-6V6C0,2.7,2.7,0,6,0z"/>
				<g id="Visa_Inc._logo" transform="translate(8.000000, 10.000000)">
					<polygon id="polygon9" class="st1" points="14.7,10.9 11.9,10.9 13.7,0.2 16.4,0.2 					"/>
					<path id="path11" class="st1" d="M24.7,0.5C24.1,0.2,23.3,0,22.2,0c-2.7,0-4.6,1.4-4.7,3.5c0,1.5,1.4,2.4,2.4,2.9
						c1.1,0.5,1.4,0.9,1.4,1.3c0,0.7-0.9,1-1.7,1c-1.1,0-1.7-0.2-2.6-0.6L16.8,8l-0.4,2.4c0.6,0.3,1.8,0.6,3.1,0.6
						c2.9,0,4.8-1.4,4.8-3.6c0-1.2-0.7-2.1-2.3-2.9c-1-0.5-1.6-0.8-1.6-1.3c0-0.5,0.5-0.9,1.6-0.9c0.9,0,1.6,0.2,2.1,0.4l0.2,0.1
						L24.7,0.5L24.7,0.5L24.7,0.5z"/>
					<path id="path13" class="st1" d="M28.3,7.1c0.2-0.6,1.1-3,1.1-3c0,0,0.2-0.6,0.4-1L30,4c0,0,0.5,2.5,0.6,3.1
						C30.2,7.1,28.9,7.1,28.3,7.1L28.3,7.1z M31.7,0.2h-2.1c-0.7,0-1.1,0.2-1.4,0.9l-4.1,9.7H27c0,0,0.5-1.3,0.6-1.6
						c0.3,0,3.1,0,3.5,0c0.1,0.4,0.3,1.6,0.3,1.6h2.5L31.7,0.2L31.7,0.2L31.7,0.2z"/>
					<path id="path15" class="st1" d="M9.6,0.2L6.9,7.5L6.6,6C6.1,4.3,4.6,2.5,2.8,1.6l2.5,9.3h2.9l4.3-10.6H9.6L9.6,0.2L9.6,0.2z"
						/>
					<path id="path17" class="st2" d="M4.4,0.2H0l0,0.2c3.4,0.9,5.7,3,6.6,5.6l-1-4.9C5.5,0.5,5,0.3,4.4,0.2L4.4,0.2z"/>
				</g>
			</g>
		</g>
	</g>
</g>
</svg>
